<?xml version="1.0" encoding="UTF-8" standalone="no"?>
<!-- Created with Inkscape (http://www.inkscape.org/) -->

<svg
   xmlns:dc="http://purl.org/dc/elements/1.1/"
   xmlns:cc="http://creativecommons.org/ns#"
   xmlns:rdf="http://www.w3.org/1999/02/22-rdf-syntax-ns#"
   xmlns:svg="http://www.w3.org/2000/svg"
   xmlns="http://www.w3.org/2000/svg"
   xmlns:sodipodi="http://sodipodi.sourceforge.net/DTD/sodipodi-0.dtd"
   xmlns:inkscape="http://www.inkscape.org/namespaces/inkscape"
   width="208.2001mm"
   height="193.71759mm"
   viewBox="0 0 208.2001 193.71758"
   version="1.1"
   id="svg8"
   inkscape:version="0.92.1 r15371"
   sodipodi:docname="capoeira-ginga.svg">
  <defs
     id="defs2">
    <pattern
       y="0"
       x="0"
       height="6"
       width="6"
       patternUnits="userSpaceOnUse"
       id="WMFhbasepattern" />
    <pattern
       y="0"
       x="0"
       height="6"
       width="6"
       patternUnits="userSpaceOnUse"
       id="WMFhbasepattern-3" />
    <pattern
       y="0"
       x="0"
       height="6"
       width="6"
       patternUnits="userSpaceOnUse"
       id="WMFhbasepattern-6" />
    <pattern
       y="0"
       x="0"
       height="6"
       width="6"
       patternUnits="userSpaceOnUse"
       id="WMFhbasepattern-7" />
  </defs>
  <sodipodi:namedview
     id="base"
     pagecolor="#ffffff"
     bordercolor="#666666"
     borderopacity="1.0"
     inkscape:pageopacity="0.0"
     inkscape:pageshadow="2"
     inkscape:zoom="0.35"
     inkscape:cx="454.40723"
     inkscape:cy="303.99211"
     inkscape:document-units="mm"
     inkscape:current-layer="layer1"
     showgrid="false"
     fit-margin-top="0"
     fit-margin-left="0"
     fit-margin-right="0"
     fit-margin-bottom="0"
     inkscape:window-width="1600"
     inkscape:window-height="851"
     inkscape:window-x="0"
     inkscape:window-y="0"
     inkscape:window-maximized="1" />
  <metadata
     id="metadata5">
    <rdf:RDF>
      <cc:Work
         rdf:about="">
        <dc:format>image/svg+xml</dc:format>
        <dc:type
           rdf:resource="http://purl.org/dc/dcmitype/StillImage" />
        <dc:title></dc:title>
      </cc:Work>
    </rdf:RDF>
  </metadata>
  <g
     inkscape:label="Camada 1"
     inkscape:groupmode="layer"
     id="layer1"
     transform="translate(-13.735026,-34.027988)">
    <path
       style="fill:#000000;stroke-width:0.41746965"
       d="m 40.431523,224.19592 c -4.334064,-1.39781 -7.251258,-3.02064 -7.69654,-4.28161 -0.21496,-0.6087 -0.283182,-1.21439 -0.151614,-1.34596 0.131568,-0.13157 2.373905,-0.71444 4.982994,-1.29529 4.56551,-1.0164 6.622387,-1.83529 6.622387,-2.63653 0,-0.20805 -0.890907,-0.97953 -1.979792,-1.71442 -1.088886,-0.73487 -2.986943,-2.19658 -4.217917,-3.24822 -2.077728,-1.77507 -2.223674,-2.01967 -2.036724,-3.41353 0.110764,-0.82578 0.786426,-2.8344 1.501494,-4.46359 0.715057,-1.62919 1.571516,-4.25247 1.903264,-5.8295 0.331736,-1.57702 1.444857,-6.05715 2.473616,-9.95583 1.028746,-3.89868 2.834617,-10.73783 4.013037,-15.19811 1.178409,-4.46027 2.414767,-9.4386 2.74745,-11.06294 0.803443,-3.9229 3.92393,-13.96636 4.72949,-15.22211 0.809065,-1.26121 4.704534,-3.76071 11.113368,-7.13079 2.755297,-1.44886 6.794309,-3.57229 8.975595,-4.71868 2.181275,-1.14641 5.280993,-2.80065 6.888246,-3.67607 2.372212,-1.29209 11.42185,-4.78993 15.512186,-5.99573 1.288286,-0.37979 1.520157,-1.3894 0.613677,-2.67209 -0.431507,-0.61059 -1.219625,-2.14339 -1.751376,-3.40624 -0.531764,-1.26284 -1.414516,-2.89582 -1.961675,-3.62883 -0.547171,-0.73302 -1.330828,-2.23591 -1.741472,-3.33975 -0.529728,-1.42397 -1.124932,-2.20287 -2.048866,-2.68122 -2.300393,-1.19097 -6.005018,-4.27604 -7.685038,-6.39979 -0.898172,-1.135408 -2.903738,-2.959622 -4.456804,-4.053821 -3.561982,-2.509545 -5.231918,-4.555653 -9.474283,-11.60847 L 63.906688,79.56516 61.457805,79.64244 C 50.109867,80.000525 49.974832,79.993165 45.441166,78.769173 43.03027,78.118291 40.349444,77.326634 39.483768,77.009938 38.61809,76.693242 36.721644,76.43413 35.269425,76.43413 c -2.351539,0 -2.910733,-0.174738 -5.111769,-1.597337 -3.117564,-2.014985 -4.361566,-3.498232 -6.221921,-7.41854 -0.816413,-1.720443 -1.712691,-3.197915 -1.991732,-3.283272 -0.279041,-0.08532 -1.002535,-0.263029 -1.607762,-0.394811 -0.831264,-0.180997 -1.434539,-0.884031 -2.46648,-2.874379 -1.50966,-2.911726 -1.492607,-3.757759 0.124184,-6.164881 1.146918,-1.707556 3.077458,-2.070545 5.539999,-1.041622 0.854245,0.356919 1.927344,0.648953 2.384649,0.648953 0.863594,0 3.744268,1.408268 5.015501,2.451913 0.41378,0.339701 0.730571,1.169095 0.730571,1.912731 0,1.561705 0.643946,2.314865 1.979213,2.314865 0.537502,0 2.085514,0.576779 3.440045,1.28173 2.145678,1.116719 2.721285,1.244311 4.470698,0.99102 2.507413,-0.363037 2.934222,-0.703945 3.496741,-2.792962 0.383556,-1.42441 0.313075,-2.044512 -0.470523,-4.139837 -1.252784,-3.349897 -0.98347,-6.723141 0.855227,-10.71225 2.067883,-4.486342 4.116063,-6.008049 10.243029,-7.610118 4.438769,-1.160635 9.244008,-1.495164 11.680029,-0.813124 3.628783,1.016002 6.684195,5.642965 7.369052,11.159343 0.219173,1.765411 0.745576,3.874843 1.16977,4.687622 0.424205,0.812792 0.991268,2.066286 1.260156,2.785531 0.268898,0.719258 0.99186,1.77611 1.606601,2.348581 0.982807,0.915225 1.599585,1.067703 5.110267,1.263351 2.1959,0.122385 4.695989,0.516427 5.555737,0.875653 0.85976,0.359238 2.538548,0.763942 3.730636,0.899367 5.624266,0.638907 10.230087,2.51875 13.752157,5.612871 0.97588,0.857299 2.88351,2.082498 4.23917,2.722659 2.4144,1.140114 5.01852,3.512101 11.72912,10.683623 3.48542,3.724814 9.80763,8.584288 13.55167,10.416276 5.74899,2.813044 11.02943,7.737722 17.66092,16.471064 5.81074,7.65246 9.46221,11.94145 10.81094,12.69849 0.97175,0.54541 1.52604,0.52739 5.0423,-0.16399 3.77678,-0.74258 4.0313,-0.74471 5.78662,-0.0482 1.00984,0.40063 2.30572,1.15288 2.87974,1.67163 0.57402,0.51877 1.93786,1.4526 3.03074,2.07518 1.59258,0.90725 2.24588,1.64598 3.29071,3.72117 0.71699,1.42406 1.7484,3.12023 2.292,3.76926 1.2622,1.50704 1.24657,1.95096 -0.0687,1.95096 -1.98925,0 -3.88328,-1.15405 -5.43199,-3.30973 -0.83665,-1.16457 -1.66754,-2.11738 -1.84642,-2.11738 -0.17888,0 -1.17664,0.37662 -2.21722,0.83692 -5.21767,2.30802 -14.54683,1.09052 -16.9454,-2.21145 -0.31422,-0.43256 -1.59543,-1.44161 -2.84715,-2.24232 -1.25172,-0.80071 -4.43849,-3.13241 -7.08171,-5.18154 -2.64323,-2.04914 -5.04926,-3.72569 -5.34675,-3.72569 -0.29749,0 -0.76482,0.2698 -1.03852,0.59958 -0.39303,0.47358 -0.26612,1.24127 0.60385,3.65287 1.73566,4.81129 3.96624,13.07556 3.96624,14.69488 0,2.45267 -1.29557,10.00833 -1.87267,10.92118 -0.29706,0.46992 -0.63681,1.78495 -0.75499,2.92229 -0.11822,1.13735 -0.34423,2.56133 -0.50231,3.1644 -0.21015,0.8017 0.12996,2.03633 1.26507,4.59217 2.27852,5.13049 4.37047,12.18939 4.79291,16.17279 0.3959,3.73301 0.88218,4.63953 3.10558,5.78928 0.96126,0.49709 2.00459,0.57929 4.71163,0.37122 l 3.47698,-0.26726 2.01216,1.88214 c 1.70347,1.59338 2.27284,1.88212 3.71146,1.88212 0.93462,0 3.63914,0.68387 6.01002,1.51972 11.71201,4.12901 16.81698,5.73847 21.13129,6.66212 7.03728,1.50664 10.56283,2.56505 11.5327,3.46228 0.61785,0.57158 1.95726,0.93542 4.62682,1.25684 4.00186,0.48182 5.44311,1.17632 6.37292,3.07087 0.41912,0.85398 0.42295,1.32091 0.0185,2.25853 -0.67064,1.55467 -4.00288,5.77858 -6.14637,7.79109 -1.56827,1.47245 -3.86805,5.62253 -6.08499,10.98073 -0.39276,0.94929 -1.13945,1.95362 -1.65931,2.23184 -1.31647,0.70455 -8.85871,0.82587 -9.75577,0.15694 -1.10165,-0.82151 0.14484,-2.68663 2.33661,-3.49626 2.23217,-0.82455 2.66527,-1.27464 3.31439,-3.44439 1.03466,-3.45852 0.40439,-6.98038 -1.13981,-6.36912 -0.33836,0.13395 -2.21202,2.98427 -4.16368,6.33408 -1.95167,3.34982 -3.76652,6.17595 -4.03298,6.28031 -1.39452,0.54619 -10.0832,-1.28597 -15.09984,-3.18405 -12.04779,-4.55839 -19.16167,-9.04506 -29.83266,-18.81531 -9.3224,-8.53548 -9.48162,-8.70934 -13.68255,-14.94045 -2.50186,-3.7109 -3.84996,-5.34433 -4.48782,-5.43766 -0.79002,-0.11562 -0.91172,0.0629 -0.91172,1.33714 0,2.1832 -0.65406,3.23915 -2.93843,4.74396 l -2.05776,1.35554 -2.30281,-1.1294 c -2.22845,-1.09293 -2.30261,-1.18389 -2.29673,-2.81668 0.009,-2.44229 1.01326,-4.96549 2.95432,-7.4211 l 1.70028,-2.151 -0.28262,-2.94585 c -0.20986,-2.18758 -0.63719,-3.59056 -1.66016,-5.45064 -0.75765,-1.37766 -1.89213,-3.44413 -2.52106,-4.59217 -1.45181,-2.65012 -1.83912,-3.13102 -2.52172,-3.13102 -0.86997,0 -11.9117,5.00508 -18.285694,8.2887 -3.184721,1.64064 -6.136587,2.98298 -6.559693,2.98298 -0.423105,0 -1.746785,-0.38529 -2.941512,-0.85622 -3.432093,-1.35279 -4.409422,-1.05361 -6.21321,1.90215 -0.841501,1.37889 -3.344998,4.83392 -5.563335,7.67785 -2.218338,2.84393 -4.033333,5.31984 -4.033333,5.50204 0,0.18219 0.178702,0.8013 0.397131,1.37579 0.398561,1.0483 -0.352363,6.20511 -1.892318,12.99505 -1.103298,4.86466 -1.238784,10.91309 -0.37119,16.56989 0.730192,4.76089 0.73147,5.03562 0.02899,6.22489 -0.528461,0.89463 -0.660101,1.68722 -0.468547,2.82108 0.206382,1.22153 0.08095,1.80564 -0.556815,2.59195 -0.77148,0.95126 -1.094424,1.01743 -5.137899,1.05266 -2.373064,0.0207 -7.977958,0.16557 -12.45533,0.32198 -7.57025,0.26446 -8.330784,0.22306 -10.854209,-0.59077 z"
       id="path376"
       inkscape:connector-curvature="0" />
  </g>
</svg>
