<svg width="115" height="30" viewBox="0 0 115 30" fill="none" xmlns="http://www.w3.org/2000/svg">
<g clip-path="url(#clip0_57_25)">
<path opacity="0.94902" d="M44.2724 0H46.3993L47.4068 0.447761L48.1344 1.06343L48.918 2.40672L49.0299 4.3097C48.8583 5.18284 48.5038 5.87313 47.9665 6.3806L46.7351 7.16418L45.168 7.38806L43.9366 7.16418L42.5374 6.21269L41.6418 4.42164V2.85448C41.903 1.84701 42.4068 1.08209 43.153 0.559701L44.2724 0Z" fill="#F9AC02" stroke="#F9AC02"/>
<path opacity="0.894118" d="M103.601 8.6194L114.515 8.67537L103.601 8.73134V8.6194Z" fill="#221E1C" stroke="#221E1C"/>
<path opacity="0.894118" d="M99.683 12.4254L99.7391 29.4963H99.6268L99.683 12.4254Z" fill="#221E1C" stroke="#221E1C"/>
<path opacity="0.894118" d="M17.7427 21.0448L17.7988 21.3246H17.6865L17.7427 21.0448Z" fill="#221E1C" stroke="#221E1C"/>
<path opacity="0.894118" d="M74.2723 22.2761L75.2238 22.3321L74.2723 22.3881V22.2761Z" fill="#221E1C" stroke="#221E1C"/>
<path opacity="0.894118" d="M7.77991 22.8358L7.89221 23.0597" stroke="#221E1C"/>
<path opacity="0.894118" d="M39.3472 25.4104L39.4033 25.6903H39.291L39.3472 25.4104Z" fill="#221E1C" stroke="#221E1C"/>
<path opacity="0.894118" d="M15.2803 27.0896L15.168 27.3134" stroke="#221E1C"/>
<path opacity="0.494118" d="M87.2574 8.73135H95.7649L95.8209 8.89926L95.3731 9.17911L95.2052 9.62687L94.9253 9.79478L94.7015 10.1306L93.5821 11.5299C93.3806 11.4478 93.3059 11.5037 93.3582 11.6978L92.1828 13.209L92.2388 13.041L93.0224 11.8097L95.597 8.89926L87.2574 8.84329L84.9627 11.9216L84.403 13.041L84.1231 14.1045L84.0671 13.8246L84.6268 12.2575L85.4104 11.1381V10.8582L85.7462 10.6903L86.9776 8.84329L87.2574 8.73135Z" fill="#028FE3" stroke="#028FE3"/>
<path opacity="0.494118" d="M92.0709 13.3209L92.1269 13.7127L92.015 13.8246V14.7201L92.1269 15.056L92.9665 15.8955L95.765 17.0149L96.9403 17.9664L97.3881 18.6381L97.1642 18.5261L96.2127 17.4627L95.765 17.1269L92.7426 15.8955L92.1269 15.2798C91.8433 14.9291 91.7687 14.3694 91.903 13.6007L92.0709 13.3209Z" fill="#028FE3" stroke="#028FE3"/>
<path opacity="0.494118" d="M84.0112 14.2164L84.0671 16.6231L84.403 17.8545C84.7388 18.75 85.2425 19.4776 85.9142 20.0373L88.8806 21.5485L88.7127 21.6045L86.6977 20.709L85.4104 19.7575L85.1865 19.4216L84.1791 17.6306L83.8433 15.8395V14.944L84.0112 14.2164Z" fill="#028FE3" stroke="#028FE3"/>
<path opacity="0.494118" d="M97.4441 18.806C97.6157 18.7537 97.6717 18.8097 97.612 18.9739L98.1717 20.0933V20.541H98.0598C97.9329 19.8172 97.7277 19.2388 97.4441 18.806Z" fill="#028FE3" stroke="#028FE3"/>
<path opacity="0.494118" d="M98.2278 20.709L98.2839 20.9888H98.1716L98.2278 20.709Z" fill="#028FE3" stroke="#028FE3"/>
<path opacity="0.494118" d="M98.3397 21.1567L98.5082 22.444L98.3397 23.3955L98.2836 22.444V22.2201L98.3397 21.1567Z" fill="#028FE3" stroke="#028FE3"/>
<path opacity="0.494118" d="M89.0485 21.6045L90 22.2201C90.3731 22.5187 90.5224 23.041 90.4478 23.7873L89.6642 25.3545L87.2015 28.041V28.209L86.8657 28.3769L85.7463 29.6082L94.1418 29.7201L85.5784 29.7761L85.7463 29.4963L88.6567 26.3619L89.1045 25.6343C89.306 25.7164 89.3806 25.6604 89.3284 25.4664L90.2239 24.1231L90.3358 23.3396L90.112 22.556L89.4963 21.9403C89.1978 21.903 89.0485 21.791 89.0485 21.6045Z" fill="#028FE3" stroke="#028FE3"/>
<path opacity="0.494118" d="M98.2276 23.5075L98.2836 23.7873L98.1716 24.347L97.8918 24.7388L97.8358 24.5709L98.2276 23.5075Z" fill="#028FE3" stroke="#028FE3"/>
<path opacity="0.494118" d="M97.7798 24.8507L97.8358 25.1306L96.8283 26.7537C96.6045 26.6642 96.5298 26.7575 96.6045 27.0336L94.6455 29.5522L94.3097 29.6642V29.5522L94.8134 29.1604L97.0522 26.1381L97.7798 24.8507Z" fill="#028FE3" stroke="#028FE3"/>
<path opacity="0.133333" d="M23.3396 8.39552L24.9627 8.45149L23.3396 8.50746V8.39552Z" fill="#272421" stroke="#272421"/>
<path opacity="0.133333" d="M103.153 8.50746L103.545 8.56343L103.153 8.6194V8.50746Z" fill="#272421" stroke="#272421"/>
<path opacity="0.133333" d="M10.5785 8.6194L10.6346 21.8843H10.5223L10.5785 8.6194Z" fill="#272421" stroke="#272421"/>
<path opacity="0.133333" d="M17.9666 8.6194L18.0227 20.653H17.9104L17.9666 8.6194Z" fill="#272421" stroke="#272421"/>
<path opacity="0.133333" d="M39.459 8.6194L39.6274 8.67537V22.444H39.5151V8.78731L39.459 8.6194Z" fill="#272421" stroke="#272421"/>
<path opacity="0.133333" d="M57.4813 8.6194C57.7059 8.55224 57.7621 8.68284 57.6498 9.01119H57.5375L57.4813 8.6194Z" fill="#272421" stroke="#272421"/>
<path opacity="0.133333" d="M68.7875 8.6194L68.8436 8.89925H68.7313L68.7875 8.6194Z" fill="#272421" stroke="#272421"/>
<path opacity="0.133333" d="M75.168 8.6194L75.4487 8.67537L75.168 8.73134V8.6194Z" fill="#272421" stroke="#272421"/>
<path opacity="0.133333" d="M41.6978 8.73135L41.7538 29.6642L49.0299 29.7202L41.8098 29.7761L41.6418 29.6082L41.6978 8.73135Z" fill="#272421" stroke="#272421"/>
<path opacity="0.133333" d="M76.2874 8.84328L76.5681 8.89925L76.2874 8.95522V8.84328Z" fill="#272421" stroke="#272421"/>
<path opacity="0.133333" d="M102.034 8.84328L102.202 8.89925L101.922 9.06717L102.034 8.84328Z" fill="#272421" stroke="#272421"/>
<path opacity="0.133333" d="M21.885 8.95522L21.6604 9.29104" stroke="#272421"/>
<path opacity="0.133333" d="M26.5858 8.95522L26.6981 9.1791" stroke="#272421"/>
<path opacity="0.133333" d="M50.2054 8.95522L50.2616 9.23507H50.1493L50.2054 8.95522Z" fill="#272421" stroke="#272421"/>
<path opacity="0.133333" d="M26.9216 9.17911L27.2024 9.34702L27.0339 9.40299L26.9216 9.17911Z" fill="#272421" stroke="#272421"/>
<path opacity="0.133333" d="M72.2578 9.17911L72.4263 9.23508L72.1455 9.40299L72.2578 9.17911Z" fill="#272421" stroke="#272421"/>
<path opacity="0.133333" d="M101.474 9.17911L101.362 9.40299" stroke="#272421"/>
<path opacity="0.133333" d="M21.4369 9.29105L21.3246 9.51493" stroke="#272421"/>
<path opacity="0.133333" d="M77.4067 9.29105L77.519 9.51493" stroke="#272421"/>
<path opacity="0.133333" d="M71.922 9.40298L71.8097 9.62687" stroke="#272421"/>
<path opacity="0.133333" d="M27.3694 9.51492L27.9291 10.1866" stroke="#272421"/>
<path opacity="0.133333" d="M21.1011 9.62686L20.9888 9.85074" stroke="#272421"/>
<path opacity="0.133333" d="M71.5858 9.62686L71.0261 10.2985" stroke="#272421"/>
<path opacity="0.133333" d="M77.8545 9.62686L78.1353 9.7388L78.0791 9.96268L77.8545 9.62686Z" fill="#272421" stroke="#272421"/>
<path opacity="0.133333" d="M100.915 9.62686L100.69 9.96268" stroke="#272421"/>
<path opacity="0.133333" d="M20.8772 9.96268L20.7649 10.1866" stroke="#272421"/>
<path opacity="0.133333" d="M61.0636 10.0746L61.1198 10.3545H61.0074L61.0636 10.0746Z" fill="#272421" stroke="#272421"/>
<path opacity="0.133333" d="M68.4517 10.0746L68.5078 10.4664H68.3955L68.4517 10.0746Z" fill="#272421" stroke="#272421"/>
<path opacity="0.133333" d="M50.5413 10.2985L50.5974 10.5784H50.4851L50.5413 10.2985Z" fill="#272421" stroke="#272421"/>
<path opacity="0.133333" d="M78.5261 10.2985L79.0299 10.9142L78.806 10.8022L78.5261 10.2985Z" fill="#272421" stroke="#272421"/>
<path opacity="0.133333" d="M100.355 10.2985L100.243 10.5224" stroke="#272421"/>
<path opacity="0.133333" d="M28.153 10.4104L28.5447 10.9142L28.3209 10.8022L28.153 10.4104Z" fill="#272421" stroke="#272421"/>
<path opacity="0.133333" d="M70.803 10.4104L70.7468 10.5784L70.5784 10.8582L70.6345 10.6903L70.803 10.4104Z" fill="#272421" stroke="#272421"/>
<path opacity="0.133333" d="M60.9517 10.6343L61.0078 11.0261H60.8955L60.9517 10.6343Z" fill="#272421" stroke="#272421"/>
<path opacity="0.133333" d="M100.019 10.8582L99.963 11.0261L99.9069 11.194L99.8507 11.0261L100.019 10.8582Z" fill="#272421" stroke="#272421"/>
<path opacity="0.133333" d="M58.0413 10.9701L58.0974 11.3619H57.9851L58.0413 10.9701Z" fill="#272421" stroke="#272421"/>
<path opacity="0.133333" d="M70.4668 10.9701L70.3545 11.194" stroke="#272421"/>
<path opacity="0.133333" d="M28.6007 11.0821L28.713 11.306" stroke="#272421"/>
<path opacity="0.133333" d="M79.0858 11.0821L79.3666 11.5858H79.2543L79.0858 11.0821Z" fill="#272421" stroke="#272421"/>
<path opacity="0.133333" d="M68.1158 11.4179L68.172 11.6978H68.0597L68.1158 11.4179Z" fill="#272421" stroke="#272421"/>
<path opacity="0.133333" d="M20.2054 11.6418L20.2616 11.9216H20.1493L20.2054 11.6418Z" fill="#272421" stroke="#272421"/>
<path opacity="0.133333" d="M70.131 11.6418L70.0187 11.8657" stroke="#272421"/>
<path opacity="0.133333" d="M29.0485 11.7537L29.3292 12.1455L29.1046 12.0336L29.0485 11.7537Z" fill="#272421" stroke="#272421"/>
<path opacity="0.133333" d="M50.989 12.0896L51.0452 12.3694H50.9329L50.989 12.0896Z" fill="#272421" stroke="#272421"/>
<path opacity="0.133333" d="M99.571 12.0896L99.6272 12.3694H99.5149L99.571 12.0896Z" fill="#272421" stroke="#272421"/>
<path opacity="0.133333" d="M20.0933 12.3134L20.1493 29.6642L27.5374 29.7201L20.2053 29.7761L20.0374 29.6082L20.0933 12.3134Z" fill="#272421" stroke="#272421"/>
<path opacity="0.133333" d="M29.3843 12.3134L29.4966 12.5373" stroke="#272421"/>
<path opacity="0.133333" d="M60.6158 12.3134L60.672 12.7052H60.5597L60.6158 12.3134Z" fill="#272421" stroke="#272421"/>
<path opacity="0.133333" d="M58.3771 12.7612L58.4332 13.041H58.3209L58.3771 12.7612Z" fill="#272421" stroke="#272421"/>
<path opacity="0.133333" d="M29.7201 12.8731L30.0009 13.2649L29.7762 13.153L29.7201 12.8731Z" fill="#272421" stroke="#272421"/>
<path opacity="0.133333" d="M67.6681 13.209L67.7242 13.4888H67.6119L67.6681 13.209Z" fill="#272421" stroke="#272421"/>
<path opacity="0.133333" d="M58.489 13.3209L58.5452 13.7127H58.4329L58.489 13.3209Z" fill="#272421" stroke="#272421"/>
<path opacity="0.133333" d="M51.3248 13.4328L51.381 13.7127H51.2687L51.3248 13.4328Z" fill="#272421" stroke="#272421"/>
<path opacity="0.133333" d="M69.4591 13.4328L69.5153 13.7127H69.403L69.4591 13.4328Z" fill="#272421" stroke="#272421"/>
<path opacity="0.133333" d="M30.168 13.6567L30.2803 13.8806" stroke="#272421"/>
<path opacity="0.133333" d="M80.0935 13.6567L80.1497 13.9366H80.0374L80.0935 13.6567Z" fill="#272421" stroke="#272421"/>
<path opacity="0.133333" d="M51.4368 13.8806L51.4929 14.1605H51.3806L51.4368 13.8806Z" fill="#272421" stroke="#272421"/>
<path opacity="0.133333" d="M60.1681 14.6642L60.2242 15.1679H60.1119L60.1681 14.6642Z" fill="#272421" stroke="#272421"/>
<path opacity="0.133333" d="M80.4293 14.8881L80.4855 15.1679H80.3732L80.4293 14.8881Z" fill="#272421" stroke="#272421"/>
<path opacity="0.133333" d="M67.2203 15L67.2765 15.2799H67.1642L67.2203 15Z" fill="#272421" stroke="#272421"/>
<path opacity="0.133333" d="M51.7726 15.1119L51.8287 15.5037H51.7164L51.7726 15.1119Z" fill="#272421" stroke="#272421"/>
<path opacity="0.133333" d="M58.8248 15.1119L58.881 15.5037H58.7687L58.8248 15.1119Z" fill="#272421" stroke="#272421"/>
<path opacity="0.133333" d="M69.0114 15.1119L69.0675 15.3918H68.9552L69.0114 15.1119Z" fill="#272421" stroke="#272421"/>
<path opacity="0.133333" d="M31.2874 15.5597L31.3997 15.7836" stroke="#272421"/>
<path opacity="0.133333" d="M106.959 15.5597L107.015 18.3022H106.903L106.959 15.5597Z" fill="#272421" stroke="#272421"/>
<path opacity="0.133333" d="M66.8845 16.2313L66.9407 16.6231H66.8284L66.8845 16.2313Z" fill="#272421" stroke="#272421"/>
<path opacity="0.133333" d="M31.847 16.4552L32.0155 16.7351H31.9032L31.847 16.4552Z" fill="#272421" stroke="#272421"/>
<path opacity="0.133333" d="M59.8323 16.4552L59.8884 16.847H59.7761L59.8323 16.4552Z" fill="#272421" stroke="#272421"/>
<path opacity="0.133333" d="M68.6755 16.4552L68.7317 16.7351H68.6194L68.6755 16.4552Z" fill="#272421" stroke="#272421"/>
<path opacity="0.133333" d="M80.8771 16.6791L80.9332 16.959H80.8209L80.8771 16.6791Z" fill="#272421" stroke="#272421"/>
<path opacity="0.133333" d="M32.0709 16.903L32.1832 17.1269" stroke="#272421"/>
<path opacity="0.133333" d="M52.2203 16.903L52.2765 17.1828H52.1642L52.2203 16.903Z" fill="#272421" stroke="#272421"/>
<path opacity="0.133333" d="M59.1606 16.903L59.2168 17.1828H59.1045L59.1606 16.903Z" fill="#272421" stroke="#272421"/>
<path opacity="0.133333" d="M68.5636 16.903L68.6198 17.1828H68.5074L68.5636 16.903Z" fill="#272421" stroke="#272421"/>
<path opacity="0.133333" d="M59.2726 17.4627L59.3287 17.8545H59.2164L59.2726 17.4627Z" fill="#272421" stroke="#272421"/>
<path opacity="0.133333" d="M66.4368 18.0224L66.4929 18.3022H66.3806L66.4368 18.0224Z" fill="#272421" stroke="#272421"/>
<path opacity="0.133333" d="M68.2278 18.1343L68.2839 18.5261H68.1716L68.2278 18.1343Z" fill="#272421" stroke="#272421"/>
<path opacity="0.133333" d="M52.5562 18.2463L52.6123 18.5261H52.5L52.5562 18.2463Z" fill="#272421" stroke="#272421"/>
<path opacity="0.133333" d="M59.3843 18.3582C59.5565 18.306 59.6126 18.3619 59.5527 18.5261L59.3843 18.3582Z" fill="#272421" stroke="#272421"/>
<path opacity="0.133333" d="M111.996 18.3582L112.052 25.3545L111.884 25.5224H107.015V29.4963L106.847 29.6642L99.5149 29.6082L106.903 29.5522V25.4104H111.94L111.996 18.3582Z" fill="#272421" stroke="#272421"/>
<path opacity="0.133333" d="M81.3248 18.4702L81.381 18.75H81.2687L81.3248 18.4702Z" fill="#272421" stroke="#272421"/>
<path opacity="0.133333" d="M66.101 19.3657L66.1571 19.6455H66.0448L66.101 19.3657Z" fill="#272421" stroke="#272421"/>
<path opacity="0.133333" d="M81.6606 19.7015L81.7168 20.0933H81.6045L81.6606 19.7015Z" fill="#272421" stroke="#272421"/>
<path opacity="0.133333" d="M65.989 19.8134L66.0452 20.0933H65.9329L65.989 19.8134Z" fill="#272421" stroke="#272421"/>
<path opacity="0.133333" d="M67.78 19.9254L67.8362 20.2052H67.7239L67.78 19.9254Z" fill="#272421" stroke="#272421"/>
<path opacity="0.133333" d="M53.0039 20.0373L53.0601 20.3172H52.9478L53.0039 20.0373Z" fill="#272421" stroke="#272421"/>
<path opacity="0.133333" d="M0.0561523 20.3731L0.112305 21.6605H0L0.0561523 20.3731Z" fill="#272421" stroke="#272421"/>
<path opacity="0.133333" d="M74.4965 20.709L74.5526 21.2127H74.4403L74.4965 20.709Z" fill="#272421" stroke="#272421"/>
<path opacity="0.133333" d="M65.6532 21.0448L65.7094 21.4366H65.597L65.6532 21.0448Z" fill="#272421" stroke="#272421"/>
<path opacity="0.133333" d="M75.0562 21.0448L75.1123 21.4366H75L75.0562 21.0448Z" fill="#272421" stroke="#272421"/>
<path opacity="0.133333" d="M67.4442 21.2687L67.5004 21.5485H67.3881L67.4442 21.2687Z" fill="#272421" stroke="#272421"/>
<path opacity="0.133333" d="M17.8546 21.3806L17.9108 21.7724H17.7985L17.8546 21.3806Z" fill="#272421" stroke="#272421"/>
<path opacity="0.133333" d="M53.3397 21.3806L53.3959 21.6605H53.2836L53.3397 21.3806Z" fill="#272421" stroke="#272421"/>
<path opacity="0.133333" d="M27.5933 21.4925L27.874 21.8843L27.6494 21.7724L27.5933 21.4925Z" fill="#272421" stroke="#272421"/>
<path opacity="0.133333" d="M82.1084 21.4925L82.1646 21.7724H82.0522L82.1084 21.4925Z" fill="#272421" stroke="#272421"/>
<path opacity="0.133333" d="M0.168091 22.0522L0.224243 22.3321H0.111938L0.168091 22.0522Z" fill="#272421" stroke="#272421"/>
<path opacity="0.133333" d="M74.2723 22.0522L75.2238 22.2201L74.3843 22.2761L74.2723 22.0522Z" fill="#272421" stroke="#272421"/>
<path opacity="0.133333" d="M10.4669 22.1642L10.5231 22.3321L10.2985 22.444L10.4669 22.1642Z" fill="#272421" stroke="#272421"/>
<path opacity="0.133333" d="M7.55597 22.2761L8.17164 23.0037L7.5 22.444L7.55597 22.2761Z" fill="#272421" stroke="#272421"/>
<path opacity="0.133333" d="M28.1532 22.3881L28.3217 22.6679L28.097 22.556L28.1532 22.3881Z" fill="#272421" stroke="#272421"/>
<path opacity="0.133333" d="M10.2433 22.6119L10.0187 22.9478" stroke="#272421"/>
<path opacity="0.133333" d="M28.3768 22.8358L28.7686 23.4515L28.5447 23.3396L28.3768 22.8358Z" fill="#272421" stroke="#272421"/>
<path opacity="0.133333" d="M65.2054 22.8358L65.2616 23.1157H65.1493L65.2054 22.8358Z" fill="#272421" stroke="#272421"/>
<path opacity="0.133333" d="M82.4442 22.8358L82.5004 23.1157H82.3881L82.4442 22.8358Z" fill="#272421" stroke="#272421"/>
<path opacity="0.133333" d="M53.7875 23.0597L53.8436 23.4515H53.7313L53.7875 23.0597Z" fill="#272421" stroke="#272421"/>
<path opacity="0.133333" d="M66.9965 23.0597L67.0526 23.3396H66.9403L66.9965 23.0597Z" fill="#272421" stroke="#272421"/>
<path opacity="0.133333" d="M8.56348 23.1716L9.40303 23.2276L8.56348 23.2836V23.1716Z" fill="#272421" stroke="#272421"/>
<path opacity="0.133333" d="M17.5188 23.2836L17.575 23.5634H17.4626L17.5188 23.2836Z" fill="#272421" stroke="#272421"/>
<path opacity="0.133333" d="M0.503906 23.6194L0.560059 23.8993H0.447754L0.503906 23.6194Z" fill="#272421" stroke="#272421"/>
<path opacity="0.133333" d="M28.9368 23.7313L29.1052 24.0112L28.8806 23.8993L28.9368 23.7313Z" fill="#272421" stroke="#272421"/>
<path opacity="0.133333" d="M29.1604 24.1791L29.2727 24.403" stroke="#272421"/>
<path opacity="0.133333" d="M64.8696 24.1791L64.9258 24.459H64.8135L64.8696 24.1791Z" fill="#272421" stroke="#272421"/>
<path opacity="0.133333" d="M54.1233 24.403L54.1794 24.6828H54.0671L54.1233 24.403Z" fill="#272421" stroke="#272421"/>
<path opacity="0.133333" d="M0.8396 24.6269L1.12036 25.1306L0.895752 25.0187L0.8396 24.6269Z" fill="#272421" stroke="#272421"/>
<path opacity="0.133333" d="M82.892 24.6269L82.9481 24.9067H82.8358L82.892 24.6269Z" fill="#272421" stroke="#272421"/>
<path opacity="0.133333" d="M29.4962 24.7388L29.6085 24.9627" stroke="#272421"/>
<path opacity="0.133333" d="M54.2352 24.8507L54.2914 25.1306H54.1791L54.2352 24.8507Z" fill="#272421" stroke="#272421"/>
<path opacity="0.133333" d="M29.832 25.2985L29.9443 25.5224" stroke="#272421"/>
<path opacity="0.133333" d="M39.4591 25.5224L39.5153 25.9142H39.403L39.4591 25.5224Z" fill="#272421" stroke="#272421"/>
<path opacity="0.133333" d="M16.6235 25.6343L16.5112 25.8582" stroke="#272421"/>
<path opacity="0.133333" d="M1.39929 25.7463L1.5116 25.9701" stroke="#272421"/>
<path opacity="0.133333" d="M16.4 25.9702L16.3439 26.1381L16.1754 26.4179L16.2316 26.25L16.4 25.9702Z" fill="#272421" stroke="#272421"/>
<path opacity="0.133333" d="M54.571 25.9702L54.6272 26.25H54.5149L54.571 25.9702Z" fill="#272421" stroke="#272421"/>
<path opacity="0.133333" d="M83.2278 25.9702L83.2839 26.25H83.1716L83.2278 25.9702Z" fill="#272421" stroke="#272421"/>
<path opacity="0.133333" d="M1.62317 26.0821L1.84778 26.4179" stroke="#272421"/>
<path opacity="0.133333" d="M30.2799 26.0821L30.8956 26.9216L30.5598 26.6978L30.2799 26.0821Z" fill="#272421" stroke="#272421"/>
<path opacity="0.133333" d="M66.2129 26.0821L66.269 26.3619H66.1567L66.2129 26.0821Z" fill="#272421" stroke="#272421"/>
<path opacity="0.133333" d="M83.3397 26.4179L83.3959 26.6978H83.2836L83.3397 26.4179Z" fill="#272421" stroke="#272421"/>
<path opacity="0.133333" d="M15.9523 26.5298L15.7277 26.8657" stroke="#272421"/>
<path opacity="0.133333" d="M2.07092 26.6418L2.8545 27.5373" stroke="#272421"/>
<path opacity="0.133333" d="M54.7948 26.6418L54.9071 26.8657" stroke="#272421"/>
<path opacity="0.133333" d="M64.0865 26.6418L64.1427 26.8097L63.8619 27.2015L63.9181 27.0336L64.0865 26.6418Z" fill="#272421" stroke="#272421"/>
<path opacity="0.133333" d="M39.2352 27.0896L39.2914 27.3694H39.1791L39.2352 27.0896Z" fill="#272421" stroke="#272421"/>
<path opacity="0.133333" d="M55.0187 27.0896L55.8582 28.2649H55.7463L55.0187 27.0896Z" fill="#272421" stroke="#272421"/>
<path opacity="0.133333" d="M31.0635 27.3134L31.5672 27.9291L31.2314 27.7052L31.0635 27.3134Z" fill="#272421" stroke="#272421"/>
<path opacity="0.133333" d="M63.75 27.3134L63.694 27.4813L63.4142 27.8731L63.5821 27.5933L63.75 27.3134Z" fill="#272421" stroke="#272421"/>
<path opacity="0.133333" d="M15.0564 27.4254L14.9441 27.6492" stroke="#272421"/>
<path opacity="0.133333" d="M65.8771 27.4254L65.9332 27.7052H65.8209L65.8771 27.4254Z" fill="#272421" stroke="#272421"/>
<path opacity="0.133333" d="M3.19031 27.6493L3.41492 27.9851" stroke="#272421"/>
<path opacity="0.133333" d="M83.6755 27.7612L83.7317 28.041H83.6194L83.6755 27.7612Z" fill="#272421" stroke="#272421"/>
<path opacity="0.133333" d="M65.7651 27.8731L65.8213 28.153H65.709L65.7651 27.8731Z" fill="#272421" stroke="#272421"/>
<path opacity="0.133333" d="M73.265 27.8731L76.3433 27.9291L73.209 27.9851L73.153 28.3209L73.097 28.041L73.265 27.8731Z" fill="#272421" stroke="#272421"/>
<path opacity="0.133333" d="M3.63806 27.9851L3.75037 28.209" stroke="#272421"/>
<path opacity="0.133333" d="M14.1604 28.097L14.0485 28.3209L13.8246 28.4328L13.9365 28.209L14.1604 28.097Z" fill="#272421" stroke="#272421"/>
<path opacity="0.133333" d="M63.1903 28.097L62.7426 28.6567" stroke="#272421"/>
<path opacity="0.133333" d="M31.7351 28.209L32.2948 28.8806" stroke="#272421"/>
<path opacity="0.133333" d="M38.7877 28.3209L38.6754 28.5448" stroke="#272421"/>
<path opacity="0.133333" d="M56.0261 28.3209L56.3619 28.7687" stroke="#272421"/>
<path opacity="0.133333" d="M38.5635 28.6567L37.8918 29.4403" stroke="#272421"/>
<path opacity="0.133333" d="M62.519 28.6567L62.4067 28.8806" stroke="#272421"/>
<path opacity="0.133333" d="M12.8181 28.7687L12.7058 28.9925L12.5374 28.9366L12.8181 28.7687Z" fill="#272421" stroke="#272421"/>
<path opacity="0.133333" d="M56.5858 28.7687L57.2015 29.1604L57.0336 29.2164L56.5858 28.7687Z" fill="#272421" stroke="#272421"/>
<path opacity="0.133333" d="M62.1832 28.8806L62.0709 29.1045" stroke="#272421"/>
<path opacity="0.133333" d="M5.54102 28.9925L6.04475 29.1604L5.7649 29.2164L5.54102 28.9925Z" fill="#272421" stroke="#272421"/>
<path opacity="0.133333" d="M32.6306 28.9925L32.7429 29.2164" stroke="#272421"/>
<path opacity="0.133333" d="M72.9293 29.1045L72.9855 29.3843H72.8732L72.9293 29.1045Z" fill="#272421" stroke="#272421"/>
<path opacity="0.133333" d="M84.0114 29.1045L84.0675 29.3843H83.9552L84.0114 29.1045Z" fill="#272421" stroke="#272421"/>
<path opacity="0.133333" d="M32.9664 29.2164L33.0787 29.4403" stroke="#272421"/>
<path opacity="0.133333" d="M65.4291 29.3284L65.4851 29.6642L72.8732 29.7201L65.3732 29.7761L65.4291 29.3284Z" fill="#272421" stroke="#272421"/>
<path opacity="0.133333" d="M76.6231 29.3284L76.6791 29.6642H84.0112L84.1231 29.5522L84.0112 29.7761H76.735L76.5671 29.6082L76.6231 29.3284Z" fill="#272421" stroke="#272421"/>
<path opacity="0.133333" d="M6.99622 29.4403L7.27698 29.4963L6.99622 29.5522V29.4403Z" fill="#272421" stroke="#272421"/>
<path opacity="0.133333" d="M10.6903 29.4403L11.0821 29.4963L10.6903 29.5522V29.4403Z" fill="#272421" stroke="#272421"/>
<path opacity="0.133333" d="M59.1604 29.6642L59.7761 29.7201L59.1604 29.7761V29.6642Z" fill="#272421" stroke="#272421"/>
<path opacity="0.133333" d="M34.6455 29.8881L35.0373 29.944L34.6455 30V29.8881Z" fill="#272421" stroke="#272421"/>
<path opacity="0.133333" d="M36.3246 29.8881L36.7164 29.944L36.3246 30V29.8881Z" fill="#272421" stroke="#272421"/>
<path opacity="0.439216" d="M23.1157 8.50746L23.3965 8.56343L23.1157 8.6194V8.50746Z" fill="#24201C" stroke="#24201C"/>
<path opacity="0.439216" d="M24.9067 8.50746L25.1875 8.56343L24.9067 8.6194V8.50746Z" fill="#24201C" stroke="#24201C"/>
<path opacity="0.439216" d="M103.601 8.50746H114.459L114.627 8.67537L114.571 15.5597L114.515 8.6194H103.601V8.50746Z" fill="#24201C" stroke="#24201C"/>
<path opacity="0.439216" d="M0.16791 8.6194H7.22015L7.38806 8.78731L7.33209 21.9403L7.27612 8.73134H0.11194V20.3172H0V8.78731L0.16791 8.6194Z" fill="#24201C" stroke="#24201C"/>
<path opacity="0.439216" d="M10.6903 8.6194H17.8545L17.9105 8.89925H17.7985L17.7425 8.73134H10.6903V8.6194Z" fill="#24201C" stroke="#24201C"/>
<path opacity="0.439216" d="M32.4067 8.6194H39.347L39.515 8.78731L39.459 25.5224L39.403 8.73134H32.3508V17.1828L32.1829 17.2388L32.2388 17.0709V8.78731L32.4067 8.6194Z" fill="#24201C" stroke="#24201C"/>
<path opacity="0.439216" d="M41.8097 8.6194H48.8619L49.0298 8.78731L48.9739 29.6642L48.9179 8.73134H41.8097V8.6194Z" fill="#24201C" stroke="#24201C"/>
<path opacity="0.439216" d="M50.3172 8.6194L57.4254 8.67537L50.2612 8.73134L50.2053 8.95522L50.1493 8.78731L50.3172 8.6194Z" fill="#24201C" stroke="#24201C"/>
<path opacity="0.439216" d="M61.5112 8.6194L68.7313 8.67537L61.4552 8.73134L61.3992 8.95522L61.3433 8.78731L61.5112 8.6194Z" fill="#24201C" stroke="#24201C"/>
<path opacity="0.439216" d="M74.3843 8.6194L75.1119 8.67537L74.3843 8.73134V8.6194Z" fill="#24201C" stroke="#24201C"/>
<path opacity="0.439216" d="M26.3619 8.95522L26.6427 9.12313L26.4742 9.06716L26.3619 8.95522Z" fill="#24201C" stroke="#24201C"/>
<path opacity="0.439216" d="M101.586 9.17911L101.474 9.40299" stroke="#24201C"/>
<path opacity="0.439216" d="M21.5488 9.29105L21.4365 9.51493" stroke="#24201C"/>
<path opacity="0.439216" d="M27.1455 9.40298L27.2578 9.62687" stroke="#24201C"/>
<path opacity="0.439216" d="M101.25 9.40298L100.466 10.2985" stroke="#24201C"/>
<path opacity="0.439216" d="M77.6306 9.51492L77.7429 9.7388" stroke="#24201C"/>
<path opacity="0.439216" d="M21.2134 9.62686L20.9888 9.96268" stroke="#24201C"/>
<path opacity="0.439216" d="M71.6985 9.62686L71.4739 9.96268" stroke="#24201C"/>
<path opacity="0.439216" d="M61.1755 9.73881L61.2317 10.0187H61.1194L61.1755 9.73881Z" fill="#24201C" stroke="#24201C"/>
<path opacity="0.439216" d="M78.1903 9.96268L78.4149 10.2985" stroke="#24201C"/>
<path opacity="0.439216" d="M20.8772 10.0746L20.7649 10.2985" stroke="#24201C"/>
<path opacity="0.439216" d="M27.8171 10.0746L28.0417 10.4105" stroke="#24201C"/>
<path opacity="0.439216" d="M71.0269 10.2985L70.8022 10.6343" stroke="#24201C"/>
<path opacity="0.439216" d="M61.0636 10.4104L61.1198 10.6903H61.0074L61.0636 10.4104Z" fill="#24201C" stroke="#24201C"/>
<path opacity="0.439216" d="M100.355 10.4104L100.243 10.6343" stroke="#24201C"/>
<path opacity="0.439216" d="M50.6532 10.5224L50.7094 10.8022H50.597L50.6532 10.5224Z" fill="#24201C" stroke="#24201C"/>
<path opacity="0.439216" d="M57.9293 10.7463L57.9855 11.0261H57.8732L57.9293 10.7463Z" fill="#24201C" stroke="#24201C"/>
<path opacity="0.439216" d="M70.6907 10.7463L70.5784 10.9701" stroke="#24201C"/>
<path opacity="0.439216" d="M20.2054 11.9776L20.2616 12.4813H20.1493L20.2054 11.9776Z" fill="#24201C" stroke="#24201C"/>
<path opacity="0.439216" d="M60.7278 12.0896L60.7839 12.3694H60.6716L60.7278 12.0896Z" fill="#24201C" stroke="#24201C"/>
<path opacity="0.439216" d="M51.101 12.3134L51.1571 12.5933H51.0448L51.101 12.3134Z" fill="#24201C" stroke="#24201C"/>
<path opacity="0.439216" d="M29.3843 12.4254L29.4966 12.6492" stroke="#24201C"/>
<path opacity="0.439216" d="M99.571 12.4254L99.6272 29.4963H99.5149L99.571 12.4254Z" fill="#24201C" stroke="#24201C"/>
<path opacity="0.439216" d="M60.6158 12.7612L60.672 13.041H60.5597L60.6158 12.7612Z" fill="#24201C" stroke="#24201C"/>
<path opacity="0.439216" d="M58.3771 13.097L58.4332 13.3769H58.3209L58.3771 13.097Z" fill="#24201C" stroke="#24201C"/>
<path opacity="0.439216" d="M79.9816 13.4328L80.0377 13.7127H79.9254L79.9816 13.4328Z" fill="#24201C" stroke="#24201C"/>
<path opacity="0.439216" d="M60.28 14.4403L60.3362 14.7202H60.2239L60.28 14.4403Z" fill="#24201C" stroke="#24201C"/>
<path opacity="0.439216" d="M30.8396 14.8881L30.9519 15.1119" stroke="#24201C"/>
<path opacity="0.439216" d="M58.7129 14.8881L58.769 15.1679H58.6567L58.7129 14.8881Z" fill="#24201C" stroke="#24201C"/>
<path opacity="0.439216" d="M31.6232 16.2313L31.7355 16.4552" stroke="#24201C"/>
<path opacity="0.439216" d="M59.9442 16.2313L60.0004 16.5112H59.8881L59.9442 16.2313Z" fill="#24201C" stroke="#24201C"/>
<path opacity="0.439216" d="M59.8323 16.903L59.8884 17.1828H59.7761L59.8323 16.903Z" fill="#24201C" stroke="#24201C"/>
<path opacity="0.439216" d="M59.1606 17.2388L59.2168 17.5187H59.1045L59.1606 17.2388Z" fill="#24201C" stroke="#24201C"/>
<path opacity="0.439216" d="M66.3248 18.2463L66.381 18.5261H66.2687L66.3248 18.2463Z" fill="#24201C" stroke="#24201C"/>
<path opacity="0.439216" d="M81.2129 18.2463L81.269 18.5261H81.1567L81.2129 18.2463Z" fill="#24201C" stroke="#24201C"/>
<path opacity="0.439216" d="M106.959 18.3582L111.94 18.4142L106.959 18.4701V18.3582Z" fill="#24201C" stroke="#24201C"/>
<path opacity="0.439216" d="M52.6681 18.4702L52.7242 18.75H52.6119L52.6681 18.4702Z" fill="#24201C" stroke="#24201C"/>
<path opacity="0.439216" d="M59.3845 18.4702L59.553 18.75L59.3284 18.6381L59.3845 18.4702Z" fill="#24201C" stroke="#24201C"/>
<path opacity="0.439216" d="M17.8546 19.1418L17.9108 21.3246H17.7985L17.8546 19.1418Z" fill="#24201C" stroke="#24201C"/>
<path opacity="0.439216" d="M74.7202 19.5896L74.8887 19.9813H74.7764L74.7202 19.5896Z" fill="#24201C" stroke="#24201C"/>
<path opacity="0.439216" d="M53.1158 20.2612L53.172 20.541H53.0597L53.1158 20.2612Z" fill="#24201C" stroke="#24201C"/>
<path opacity="0.439216" d="M74.3845 21.0448L74.4407 21.4366H74.3284L74.3845 21.0448Z" fill="#24201C" stroke="#24201C"/>
<path opacity="0.439216" d="M0.168091 21.3806L0.224243 21.9963H0.111938L0.168091 21.3806Z" fill="#24201C" stroke="#24201C"/>
<path opacity="0.439216" d="M27.4254 21.3806L27.65 21.4366L27.5377 21.5485L27.4816 29.6642L27.4254 21.3806Z" fill="#24201C" stroke="#24201C"/>
<path opacity="0.439216" d="M75.1681 21.3806L75.2242 21.6605H75.1119L75.1681 21.3806Z" fill="#24201C" stroke="#24201C"/>
<path opacity="0.439216" d="M7.66797 22.6119L8.00379 23.0597" stroke="#24201C"/>
<path opacity="0.439216" d="M67.1084 22.8358L67.1646 23.1157H67.0522L67.1084 22.8358Z" fill="#24201C" stroke="#24201C"/>
<path opacity="0.439216" d="M106.847 25.4104L106.903 29.4963H106.791L106.847 25.4104Z" fill="#24201C" stroke="#24201C"/>
<path opacity="0.439216" d="M16.3997 25.8582L16.2874 26.0821" stroke="#24201C"/>
<path opacity="0.439216" d="M1.62317 25.9702L1.73547 26.194" stroke="#24201C"/>
<path opacity="0.439216" d="M30.2799 25.9702L30.3922 26.194" stroke="#24201C"/>
<path opacity="0.439216" d="M16.1758 26.194L16.0635 26.4179" stroke="#24201C"/>
<path opacity="0.439216" d="M39.3472 26.194L39.4033 26.4739H39.291L39.3472 26.194Z" fill="#24201C" stroke="#24201C"/>
<path opacity="0.439216" d="M1.95898 26.4179L2.18359 26.7537" stroke="#24201C"/>
<path opacity="0.439216" d="M15.6157 26.8657L15.168 27.4254" stroke="#24201C"/>
<path opacity="0.439216" d="M55.0187 26.9776L55.131 27.2015" stroke="#24201C"/>
<path opacity="0.439216" d="M31.0635 27.2015L31.1758 27.4254" stroke="#24201C"/>
<path opacity="0.439216" d="M2.85449 27.3134L3.0791 27.6493" stroke="#24201C"/>
<path opacity="0.439216" d="M83.5636 27.5373L83.6198 27.8172H83.5074L83.5636 27.5373Z" fill="#24201C" stroke="#24201C"/>
<path opacity="0.439216" d="M14.7205 27.6493L14.6082 27.8731" stroke="#24201C"/>
<path opacity="0.439216" d="M3.41418 27.7612L3.52649 27.9851" stroke="#24201C"/>
<path opacity="0.439216" d="M14.3846 27.8731L14.2723 28.097" stroke="#24201C"/>
<path opacity="0.439216" d="M63.3023 27.8731L62.6306 28.6567" stroke="#24201C"/>
<path opacity="0.439216" d="M31.6232 27.9851L31.8478 28.3209" stroke="#24201C"/>
<path opacity="0.439216" d="M76.3994 27.9851L76.4556 28.2649H76.3433L76.3994 27.9851Z" fill="#24201C" stroke="#24201C"/>
<path opacity="0.439216" d="M13.825 28.209L13.7126 28.4328" stroke="#24201C"/>
<path opacity="0.439216" d="M38.7877 28.209L38.6754 28.4328" stroke="#24201C"/>
<path opacity="0.439216" d="M38.5638 28.5448L38.4515 28.7687" stroke="#24201C"/>
<path opacity="0.439216" d="M32.2948 28.6567L32.5194 28.9925" stroke="#24201C"/>
<path opacity="0.439216" d="M32.7426 28.9925L32.8549 29.2164" stroke="#24201C"/>
<path opacity="0.439216" d="M65.5413 29.1045L65.5974 29.3843H65.4851L65.5413 29.1045Z" fill="#24201C" stroke="#24201C"/>
<path opacity="0.439216" d="M33.0784 29.2164L33.3591 29.3843L33.1907 29.4403L33.0784 29.2164Z" fill="#24201C" stroke="#24201C"/>
<path opacity="0.439216" d="M37.8922 29.2164L37.7799 29.4403" stroke="#24201C"/>
<path opacity="0.439216" d="M6.77234 29.3284L7.0531 29.3843L6.77234 29.4403V29.3284Z" fill="#24201C" stroke="#24201C"/>
<path opacity="0.439216" d="M7.33203 29.4403L7.61279 29.4963L7.33203 29.5522V29.4403Z" fill="#24201C" stroke="#24201C"/>
<path opacity="0.439216" d="M10.3545 29.4403L10.6353 29.4963L10.3545 29.5522V29.4403Z" fill="#24201C" stroke="#24201C"/>
<path opacity="0.439216" d="M8.22766 29.5522L8.61945 29.6082L8.22766 29.6642V29.5522Z" fill="#24201C" stroke="#24201C"/>
<path opacity="0.439216" d="M9.45898 29.5522L9.85078 29.6082L9.45898 29.6642V29.5522Z" fill="#24201C" stroke="#24201C"/>
<path opacity="0.439216" d="M34.4216 29.7761L34.7024 29.8321L34.4216 29.8881V29.7761Z" fill="#24201C" stroke="#24201C"/>
<path opacity="0.439216" d="M35.0933 29.8881L36.2686 29.944L35.0933 30V29.8881Z" fill="#24201C" stroke="#24201C"/>
<path opacity="0.996078" d="M0.167969 8.73135H7.27618V21.8843H7.16424V8.84329H0.167969V8.73135Z" fill="#231F1C" stroke="#231F1C"/>
<path opacity="0.996078" d="M10.8022 8.73135L17.7985 8.78732L10.8022 8.84329V8.73135Z" fill="#231F1C" stroke="#231F1C"/>
<path opacity="0.996078" d="M25.4664 8.73135L25.7472 8.78732L25.4664 8.84329V8.73135Z" fill="#231F1C" stroke="#231F1C"/>
<path opacity="0.996078" d="M32.3507 8.73135L39.4029 8.78732L32.4626 8.84329L32.4067 17.3507L32.3507 8.73135Z" fill="#231F1C" stroke="#231F1C"/>
<path opacity="0.996078" d="M41.8097 8.73135L48.9179 8.78732L41.8097 8.84329V8.73135Z" fill="#231F1C" stroke="#231F1C"/>
<path opacity="0.996078" d="M21.6611 9.29105L21.4365 9.62687" stroke="#231F1C"/>
<path opacity="0.996078" d="M27.3694 9.73881L27.4817 9.96269" stroke="#231F1C"/>
<path opacity="0.996078" d="M27.7052 10.0746L28.041 10.5224" stroke="#231F1C"/>
<path opacity="0.996078" d="M20.4293 11.194L20.4855 11.5858H20.3732L20.4293 11.194Z" fill="#231F1C" stroke="#231F1C"/>
<path opacity="0.996078" d="M28.4888 11.194L28.6011 11.4179" stroke="#231F1C"/>
<path opacity="0.996078" d="M30.5039 14.4403L30.6724 14.7202L30.4478 14.6082L30.5039 14.4403Z" fill="#231F1C" stroke="#231F1C"/>
<path opacity="0.996078" d="M27.8171 21.6045L27.9294 21.8284" stroke="#231F1C"/>
<path opacity="0.996078" d="M7.33203 22.2761L7.44434 22.5" stroke="#231F1C"/>
<path opacity="0.996078" d="M0.391968 22.5L0.44812 22.8918H0.335815L0.391968 22.5Z" fill="#231F1C" stroke="#231F1C"/>
<path opacity="0.996078" d="M39.3472 24.9627L39.4033 25.3545H39.291L39.3472 24.9627Z" fill="#231F1C" stroke="#231F1C"/>
<path opacity="0.996078" d="M1.62317 25.8582L1.84778 26.194" stroke="#231F1C"/>
<path opacity="0.996078" d="M2.07092 26.4179L2.29553 26.7537" stroke="#231F1C"/>
<path opacity="0.996078" d="M15.84 26.4179L15.7277 26.6418" stroke="#231F1C"/>
<path opacity="0.996078" d="M2.74255 27.0896L3.19031 27.6493" stroke="#231F1C"/>
<path opacity="0.996078" d="M15.0564 27.2015L14.9441 27.4254" stroke="#231F1C"/>
<path opacity="0.996078" d="M3.41418 27.6493L3.52649 27.8731" stroke="#231F1C"/>
<path opacity="0.996078" d="M31.5112 27.6493L31.6235 27.8731" stroke="#231F1C"/>
<path opacity="0.996078" d="M31.7351 27.9851L31.9597 28.3209" stroke="#231F1C"/>
<path opacity="0.996078" d="M4.75745 28.4328L4.86975 28.6567" stroke="#231F1C"/>
<path opacity="0.996078" d="M32.1829 28.4328L32.5187 28.8806" stroke="#231F1C"/>
<path opacity="0.996078" d="M38.228 28.7687L38.1157 28.9925" stroke="#231F1C"/>
<path opacity="0.996078" d="M32.7426 28.8806L32.8549 29.1045" stroke="#231F1C"/>
<path opacity="0.996078" d="M20.3171 29.5522L27.4253 29.6082L20.3171 29.6642V29.5522Z" fill="#231F1C" stroke="#231F1C"/>
<path opacity="0.996078" d="M41.8097 29.5522L48.9179 29.6082L41.8097 29.6642V29.5522Z" fill="#231F1C" stroke="#231F1C"/>
<path d="M24.0112 8.50746L25.9142 8.84328L26.8657 9.29104C26.7836 9.49254 26.8396 9.56716 27.0336 9.51492L27.3135 9.62686L27.4814 9.96269C27.653 9.91045 27.709 9.96642 27.6493 10.1306L28.8806 11.6978L29.3284 12.7612C29.5299 12.6791 29.6045 12.7351 29.5523 12.9291L31.0075 15.5597C31.2314 15.4701 31.306 15.5634 31.2314 15.8396L32.1829 17.3507L32.4627 17.2948V8.84328H39.403V24.9067L39.2911 25.0187V26.6978C39.0821 27.4963 38.765 28.1866 38.3396 28.7687L38.0597 28.9366L37.8918 29.2164L36.3247 29.8881H34.9814L33.75 29.5522L32.015 28.4328L31.5112 27.6493C31.3471 27.709 31.2911 27.653 31.3433 27.4813L30.7836 26.4179C30.5821 26.5 30.5075 26.444 30.5597 26.25L28.8806 23.5634L27.9851 21.7724L27.4814 21.1567L27.4254 29.5522H20.3172L20.2612 29.4963V27.2575L20.1493 27.1455V17.9664L20.2612 17.8545V12.2575L20.4851 11.5858V11.0261L21.2687 9.62686L22.4441 8.84328L24.0112 8.50746Z" fill="#231F1C" stroke="#231F1C"/>
<path d="M103.041 8.73135H114.515V15.5597H106.791V18.4702H111.828V25.2985H106.791V29.5522H99.7388V11.9216C99.9776 11.1306 100.313 10.4776 100.746 9.96269H100.97C100.888 9.7612 100.944 9.68657 101.138 9.73881L101.81 9.17911L103.041 8.73135Z" fill="#231F1C" stroke="#231F1C"/>
<path d="M0.111938 8.84328H7.16418V21.8843L7.27612 22.3321L8.00373 23.1716L8.67537 23.3955H9.23507L10.4104 22.8358L10.7463 21.9963V8.84328H17.7985V20.8769L17.6866 20.9888V22.3321L17.2388 23.6754V24.1231L16.3433 25.9701C16.1418 25.8881 16.0672 25.944 16.1194 26.1381L16.0075 26.4179L15.6716 26.5858L15.1679 27.2015L14.8881 27.3694L14.7201 27.6493H14.4403C14.5224 27.8507 14.4664 27.9254 14.2724 27.8731L13.4888 28.4328L11.5858 29.2164H11.0261L10.0187 29.5522H8.00373L6.88433 29.2164H6.32463L4.75746 28.4328H4.42164L2.35074 26.8097L1.34328 25.4664L0.78358 24.347L0.223879 21.7724V20.8769L0.111938 20.7649V8.84328Z" fill="#231F1C" stroke="#231F1C"/>
<path d="M41.7538 8.84328H48.918V29.5522H41.7538V8.84328Z" fill="#231F1C" stroke="#231F1C"/>
<path opacity="0.878431" d="M23.4515 8.50746L23.7323 8.56343L23.4515 8.6194V8.50746Z" fill="#24201C" stroke="#24201C"/>
<path opacity="0.878431" d="M24.459 8.50746L24.8508 8.56343L24.459 8.6194V8.50746Z" fill="#24201C" stroke="#24201C"/>
<path opacity="0.878431" d="M103.153 8.6194L103.545 8.67537L103.153 8.73134V8.6194Z" fill="#24201C" stroke="#24201C"/>
<path opacity="0.878431" d="M10.6904 8.73135L10.7466 21.8843H10.6343L10.6904 8.73135Z" fill="#24201C" stroke="#24201C"/>
<path opacity="0.878431" d="M17.8546 8.95522L17.9108 19.0858H17.7985L17.8546 8.95522Z" fill="#24201C" stroke="#24201C"/>
<path opacity="0.878431" d="M71.922 9.51492L71.8097 9.7388" stroke="#24201C"/>
<path opacity="0.878431" d="M27.3694 9.62686L27.7052 10.0746" stroke="#24201C"/>
<path opacity="0.878431" d="M77.8545 9.73881L77.9668 9.96269" stroke="#24201C"/>
<path opacity="0.878431" d="M71.3627 9.96268L71.1381 10.2985" stroke="#24201C"/>
<path opacity="0.878431" d="M57.8174 10.4104L57.8735 10.6903H57.7612L57.8174 10.4104Z" fill="#24201C" stroke="#24201C"/>
<path opacity="0.878431" d="M78.5261 10.4104L78.6384 10.6343" stroke="#24201C"/>
<path opacity="0.878431" d="M28.7126 11.4179L28.825 11.6418" stroke="#24201C"/>
<path opacity="0.878431" d="M20.3174 11.6418L20.3735 11.9216H20.2612L20.3174 11.6418Z" fill="#24201C" stroke="#24201C"/>
<path opacity="0.878431" d="M60.8397 11.7537L60.8959 12.0336H60.7836L60.8397 11.7537Z" fill="#24201C" stroke="#24201C"/>
<path opacity="0.878431" d="M99.683 11.9776L99.7391 12.3694H99.6268L99.683 11.9776Z" fill="#24201C" stroke="#24201C"/>
<path opacity="0.878431" d="M20.2054 12.5373L20.2616 17.7425H20.1493L20.2054 12.5373Z" fill="#24201C" stroke="#24201C"/>
<path opacity="0.878431" d="M58.2651 12.7612L58.3213 13.041H58.209L58.2651 12.7612Z" fill="#24201C" stroke="#24201C"/>
<path opacity="0.878431" d="M60.392 14.1045L60.4481 14.3843H60.3358L60.392 14.1045Z" fill="#24201C" stroke="#24201C"/>
<path opacity="0.878431" d="M106.847 15.5597L106.903 18.4142H106.791L106.847 15.5597Z" fill="#24201C" stroke="#24201C"/>
<path opacity="0.878431" d="M59.0487 16.903L59.1049 17.1828H58.9926L59.0487 16.903Z" fill="#24201C" stroke="#24201C"/>
<path opacity="0.878431" d="M59.6084 18.2463L59.6646 18.5261H59.5522L59.6084 18.2463Z" fill="#24201C" stroke="#24201C"/>
<path opacity="0.878431" d="M111.884 18.4702L111.94 25.2425L111.772 25.4105H106.847V25.2985H111.828L111.884 18.4702Z" fill="#24201C" stroke="#24201C"/>
<path opacity="0.878431" d="M74.7202 19.4776C74.8924 19.4254 74.9486 19.4813 74.8887 19.6455L74.7202 19.4776Z" fill="#24201C" stroke="#24201C"/>
<path opacity="0.878431" d="M0.168091 20.9328L0.224243 21.3246H0.111938L0.168091 20.9328Z" fill="#24201C" stroke="#24201C"/>
<path opacity="0.878431" d="M17.7427 21.3806L17.7988 21.8843H17.6865L17.7427 21.3806Z" fill="#24201C" stroke="#24201C"/>
<path opacity="0.878431" d="M74.2726 21.4925L74.3287 21.7724H74.2164L74.2726 21.4925Z" fill="#24201C" stroke="#24201C"/>
<path opacity="0.878431" d="M0.280029 22.0522L0.336182 22.444H0.223877L0.280029 22.0522Z" fill="#24201C" stroke="#24201C"/>
<path opacity="0.878431" d="M10.3545 22.6119L10.0187 23.0597" stroke="#24201C"/>
<path opacity="0.878431" d="M8.78735 23.2836L9.17914 23.3396L8.78735 23.3955V23.2836Z" fill="#24201C" stroke="#24201C"/>
<path opacity="0.878431" d="M28.9365 23.6194L29.0488 23.8433" stroke="#24201C"/>
<path opacity="0.878431" d="M39.3472 25.7463L39.4033 26.0261H39.291L39.3472 25.7463Z" fill="#24201C" stroke="#24201C"/>
<path opacity="0.878431" d="M15.9523 26.4179L15.7277 26.7537" stroke="#24201C"/>
<path opacity="0.878431" d="M2.2948 26.7537L2.74256 27.3134" stroke="#24201C"/>
<path opacity="0.878431" d="M15.5042 26.8657L15.3918 27.0895" stroke="#24201C"/>
<path opacity="0.878431" d="M15.0566 27.3134L14.832 27.6493" stroke="#24201C"/>
<path opacity="0.878431" d="M20.2054 27.3134L20.2616 29.6082H20.1493L20.2054 27.3134Z" fill="#24201C" stroke="#24201C"/>
<path opacity="0.878431" d="M55.5784 27.7612L55.6907 27.9851" stroke="#24201C"/>
<path opacity="0.878431" d="M73.153 27.7612H76.2873L76.4552 27.9291L76.2873 27.8731H73.153V27.7612Z" fill="#24201C" stroke="#24201C"/>
<path opacity="0.878431" d="M73.0413 27.9851L73.0974 28.2649H72.9851L73.0413 27.9851Z" fill="#24201C" stroke="#24201C"/>
<path opacity="0.878431" d="M55.9142 28.097L56.0265 28.3209" stroke="#24201C"/>
<path opacity="0.878431" d="M31.959 28.3209L32.1836 28.6567" stroke="#24201C"/>
<path opacity="0.878431" d="M56.25 28.4328L56.3623 28.6567" stroke="#24201C"/>
<path opacity="0.878431" d="M62.519 28.5448L62.4067 28.7687" stroke="#24201C"/>
<path opacity="0.878431" d="M38.3403 28.7687L38.1157 29.1045" stroke="#24201C"/>
<path opacity="0.878431" d="M65.6532 28.7687L65.7094 29.0485H65.597L65.6532 28.7687Z" fill="#24201C" stroke="#24201C"/>
<path opacity="0.878431" d="M8.67542 29.5522L9.40303 29.6082L8.67542 29.6642V29.5522Z" fill="#24201C" stroke="#24201C"/>
<path d="M50.2612 8.73135H57.3694L57.4254 8.89926L57.7612 10.0187V10.8022L58.5448 14.1605V14.944L58.7687 15.5037L58.9926 17.2948L59.3284 18.806L59.6642 18.6381V17.8545L60.112 16.2873V15.6157L60.4478 14.4963V13.7127L60.7836 12.7052L60.8956 11.4739L61.2314 10.3545L61.4553 8.73135H68.5635C68.6381 8.73135 68.6568 8.89926 68.6194 9.23508L67.612 13.2649L67.3881 13.6007V14.2724L67.0523 15.056L66.6045 17.2948L66.1568 18.5261V19.0858L65.8209 19.7575V20.3172L65.0374 22.8918L64.9254 23.7873L64.5896 24.5709V25.1306L64.0299 26.6978L63.2463 27.9851C63.0448 27.903 62.9702 27.959 63.0224 28.153C62.2015 29.0858 60.9515 29.5896 59.2724 29.6642H59.0485L57.3694 29.2164L56.5299 28.7687C56.612 28.5672 56.556 28.4925 56.362 28.5448L55.4105 27.5933L54.515 25.6903L54.0672 23.5634L53.2836 20.9888V20.4291L52.8359 19.3097V18.75L52.5 17.9664V17.4067L52.0523 16.1754V15.7276L50.8209 11.25V11.0261L50.2612 8.73135Z" fill="#24201D" stroke="#24201D"/>
<path d="M74.0485 8.73135H74.9441L75.056 8.84329L75.3918 8.73135L76.847 9.17911L78.2463 10.0746L79.2538 11.5858L79.8135 13.041V13.4888L80.597 15.9515V16.5112L81.0448 17.7425V18.3022L81.7164 20.4291L81.8284 21.3246L82.1642 22.2202V22.6679L82.5 23.5634L82.612 24.459L82.9478 25.3545L83.0597 26.25L83.2836 26.6978L83.9553 29.6082L76.7911 29.6642L76.4553 27.7612L72.9851 27.8172V28.041V28.7127L72.7612 29.6642H65.653L65.597 29.2724L66.9403 24.1231V23.6754L67.2762 22.8918V22.3321L68.1717 19.4216V19.1978L68.5075 18.0784V17.5187L69.2911 14.944V14.4963L69.7388 13.2649V12.8172C70.0448 11.8172 70.5112 10.9776 71.1381 10.2985C71.3097 10.3582 71.3657 10.3022 71.306 10.1306L72.5933 9.17911L74.0485 8.73135ZM74.7762 19.4776L74.5523 19.7015V20.3731L74.2164 21.9403V22.1642L74.3284 22.3881H75.3359V21.7164L74.8881 20.1493C74.9627 19.6269 74.9254 19.403 74.7762 19.4776Z" fill="#24201D" stroke="#24201D"/>
<path opacity="0.996078" d="M87.2574 8.84328L95.597 8.89925L92.3507 12.7052L91.903 13.6007V14.8321L92.7425 15.8955L95.7649 17.1269L97.1642 18.4142C97.6119 19.0485 97.9477 19.7948 98.1716 20.653L98.2836 22.2202L98.3955 22.3321L98.2836 22.444V23.4515L97.7239 25.0187C96.7612 26.6679 95.6604 28.1791 94.4216 29.5522L94.1977 29.6642H85.8022L86.8656 28.4888L87.0336 28.209C87.2052 28.2687 87.2612 28.2127 87.2015 28.041L89.6642 25.3545L90.3358 24.1231L90.4477 23.1157L89.7201 21.9403L86.5858 20.4851L85.2985 19.4216L84.403 17.8545L84.0671 16.6231V14.1604L84.403 13.041L84.9627 11.9216L87.2574 8.84328Z" fill="#0289E0" stroke="#0289E0"/>
</g>
<defs>
<clipPath id="clip0_57_25">
<rect width="114.627" height="30" fill="white"/>
</clipPath>
</defs>
</svg>
